<svg width="1344" height="207" viewBox="0 0 1344 207" fill="none" xmlns="http://www.w3.org/2000/svg">
<path d="M1248.88 206.021V181.226H1309.74C1313.95 181.226 1316.05 178.972 1316.05 174.464V146.288H1311.99C1310.79 148.843 1308.91 151.397 1306.36 153.952C1303.8 156.507 1300.35 158.61 1295.99 160.263C1291.63 161.916 1286.07 162.743 1279.31 162.743C1270.59 162.743 1262.93 160.789 1256.32 156.882C1249.86 152.825 1244.82 147.265 1241.21 140.202C1237.61 133.14 1235.81 125.025 1235.81 115.858V49.1384H1264.21V113.604C1264.21 122.02 1266.23 128.331 1270.29 132.539C1274.5 136.746 1280.44 138.85 1288.1 138.85C1296.81 138.85 1303.58 135.995 1308.39 130.284C1313.19 124.424 1315.6 116.309 1315.6 105.941V49.1384H1344V180.775C1344 188.439 1341.75 194.525 1337.24 199.033C1332.73 203.692 1326.72 206.021 1319.21 206.021H1248.88Z" fill="#2563EB"/>
<path d="M1178.99 160.939C1171.63 160.939 1165.62 158.685 1160.96 154.177C1156.45 149.519 1154.2 143.358 1154.2 135.694V72.5804H1126.25V49.1382H1154.2V14.4258H1182.6V49.1382H1213.25V72.5804H1182.6V130.735C1182.6 135.243 1184.7 137.497 1188.91 137.497H1210.55V160.939H1178.99Z" fill="#2563EB"/>
<path d="M1078.54 160.94V49.1384H1106.95V160.94H1078.54ZM1092.75 36.0649C1087.64 36.0649 1083.28 34.4119 1079.67 31.106C1076.22 27.8 1074.49 23.4422 1074.49 18.0325C1074.49 12.6227 1076.22 8.26488 1079.67 4.95893C1083.28 1.65298 1087.64 0 1092.75 0C1098 0 1102.36 1.65298 1105.82 4.95893C1109.27 8.26488 1111 12.6227 1111 18.0325C1111 23.4422 1109.27 27.8 1105.82 31.106C1102.36 34.4119 1098 36.0649 1092.75 36.0649Z" fill="#2563EB"/>
<path d="M1020.93 160.94V3.15564H1049.33V160.94H1020.93Z" fill="#2563EB"/>
<path d="M963.306 160.94V49.1384H991.707V160.94H963.306ZM977.506 36.0649C972.397 36.0649 968.039 34.4119 964.433 31.106C960.977 27.8 959.249 23.4422 959.249 18.0325C959.249 12.6227 960.977 8.26488 964.433 4.95893C968.039 1.65298 972.397 0 977.506 0C982.766 0 987.124 1.65298 990.58 4.95893C994.036 8.26488 995.764 12.6227 995.764 18.0325C995.764 23.4422 994.036 27.8 990.58 31.106C987.124 34.4119 982.766 36.0649 977.506 36.0649Z" fill="#2563EB"/>
<path d="M905.59 160.939C898.226 160.939 892.216 158.685 887.557 154.177C883.049 149.519 880.795 143.358 880.795 135.694V72.5804H852.845V49.1382H880.795V14.4258H909.196V49.1382H939.851V72.5804H909.196V130.735C909.196 135.243 911.3 137.497 915.507 137.497H937.146V160.939H905.59Z" fill="#2563EB"/>
<path d="M777.562 164.095C769.597 164.095 762.459 162.743 756.148 160.038C749.837 157.183 744.803 153.125 741.046 147.866C737.439 142.456 735.636 135.92 735.636 128.256C735.636 120.592 737.439 114.205 741.046 109.096C744.803 103.837 749.912 99.9298 756.374 97.3752C762.985 94.6703 770.499 93.3179 778.914 93.3179H809.569V87.0065C809.569 81.747 807.916 77.4643 804.61 74.1584C801.304 70.7022 796.045 68.974 788.832 68.974C781.769 68.974 776.51 70.627 773.054 73.933C769.597 77.0887 767.343 81.2211 766.291 86.3303L740.144 77.5395C741.948 71.8292 744.803 66.6449 748.71 61.9865C752.767 57.1778 758.102 53.3459 764.714 50.4908C771.476 47.4854 779.665 45.9827 789.283 45.9827C804.009 45.9827 815.655 49.6643 824.221 57.0275C832.786 64.3908 837.069 75.06 837.069 89.0352V130.735C837.069 135.243 839.173 137.497 843.38 137.497H852.396V160.94H833.462C827.902 160.94 823.319 159.587 819.712 156.882C816.106 154.177 814.303 150.571 814.303 146.063V145.837H810.02C809.419 147.641 808.067 150.045 805.963 153.05C803.859 155.905 800.553 158.46 796.045 160.714C791.537 162.968 785.376 164.095 777.562 164.095ZM782.521 141.104C790.485 141.104 796.947 138.925 801.905 134.567C807.015 130.059 809.569 124.123 809.569 116.76V114.506H780.943C775.683 114.506 771.551 115.633 768.545 117.887C765.54 120.141 764.037 123.297 764.037 127.354C764.037 131.411 765.615 134.717 768.771 137.272C771.927 139.827 776.51 141.104 782.521 141.104Z" fill="#2563EB"/>
<path d="M674.211 164.095C659.634 164.095 647.688 160.94 638.371 154.628C629.054 148.317 623.419 139.301 621.466 127.58L647.613 120.817C648.665 126.077 650.393 130.209 652.797 133.215C655.352 136.22 658.432 138.399 662.039 139.751C665.796 140.954 669.853 141.555 674.211 141.555C680.823 141.555 685.706 140.428 688.862 138.174C692.018 135.769 693.596 132.839 693.596 129.383C693.596 125.927 692.093 123.297 689.087 121.494C686.082 119.54 681.273 117.962 674.661 116.76L668.35 115.633C660.536 114.13 653.398 112.102 646.937 109.547C640.475 106.842 635.291 103.161 631.384 98.5022C627.477 93.8438 625.523 87.833 625.523 80.4697C625.523 69.3497 629.58 60.8594 637.695 54.9989C645.81 48.9881 656.479 45.9827 669.703 45.9827C682.175 45.9827 692.544 48.7627 700.809 54.3227C709.073 59.8827 714.483 67.1708 717.038 76.187L690.665 84.3016C689.463 78.5914 686.984 74.5341 683.227 72.1297C679.62 69.7254 675.112 68.5232 669.703 68.5232C664.293 68.5232 660.16 69.5 657.305 71.4535C654.45 73.2568 653.023 75.8114 653.023 79.1173C653.023 82.7238 654.525 85.4287 657.531 87.2319C660.536 88.8849 664.593 90.1622 669.703 91.0638L676.014 92.1908C684.429 93.6935 692.018 95.7222 698.78 98.2768C705.692 100.681 711.102 104.212 715.009 108.871C719.066 113.379 721.095 119.54 721.095 127.354C721.095 139.075 716.812 148.167 708.247 154.628C699.832 160.94 688.486 164.095 674.211 164.095Z" fill="#2563EB"/>
<path d="M543.303 160.939V49.1383H571.253V61.761H575.31C576.963 57.2529 579.668 53.947 583.425 51.8432C587.332 49.7394 591.84 48.6875 596.949 48.6875H610.474V73.9329H596.498C589.285 73.9329 583.35 75.8864 578.691 79.7935C574.033 83.5502 571.704 89.4108 571.704 97.3751V160.939H543.303Z" fill="#2563EB"/>
<path d="M466.407 164.095C455.287 164.095 445.444 161.766 436.878 157.108C428.463 152.299 421.851 145.612 417.043 137.047C412.384 128.331 410.055 118.112 410.055 106.391V103.687C410.055 91.9654 412.384 81.8222 417.043 73.2568C421.701 64.5411 428.238 57.854 436.653 53.1957C445.068 48.387 454.836 45.9827 465.956 45.9827C476.926 45.9827 486.468 48.4621 494.582 53.4211C502.697 58.2297 509.008 64.9919 513.516 73.7076C518.024 82.273 520.279 92.266 520.279 103.687V113.379H438.907C439.208 121.043 442.063 127.279 447.473 132.088C452.882 136.896 459.494 139.301 467.308 139.301C475.273 139.301 481.133 137.572 484.89 134.116C488.647 130.66 491.502 126.828 493.455 122.621L516.672 134.792C514.568 138.7 511.488 142.982 507.43 147.641C503.523 152.149 498.264 156.056 491.652 159.362C485.04 162.517 476.625 164.095 466.407 164.095ZM439.133 92.1908H491.427C490.826 85.7292 488.196 80.5449 483.537 76.6378C479.029 72.7308 473.094 70.7773 465.73 70.7773C458.067 70.7773 451.981 72.7308 447.473 76.6378C442.964 80.5449 440.184 85.7292 439.133 92.1908Z" fill="#2563EB"/>
<path d="M313.606 160.94L273.484 3.15564H304.139L337.499 141.78H340.655L374.015 3.15564H404.67L364.548 160.94H313.606Z" fill="#2563EB"/>
<path d="M160.74 164.095C154.729 164.095 149.62 162.142 145.412 158.235C141.355 154.177 139.326 148.993 139.326 142.682C139.326 136.37 141.355 131.261 145.412 127.354C149.62 123.297 154.729 121.268 160.74 121.268C166.901 121.268 172.01 123.297 176.067 127.354C180.125 131.261 182.153 136.37 182.153 142.682C182.153 148.993 180.125 154.177 176.067 158.235C172.01 162.142 166.901 164.095 160.74 164.095Z" fill="#2563EB"/>
<path d="M0 160.94V142.006C0 131.036 1.80325 121.944 5.40974 114.731C9.01623 107.368 14.2006 101.357 20.9627 96.699C27.8752 91.8904 36.2903 87.9833 46.2081 84.9779L61.3103 80.2444C66.8703 78.4411 71.5287 76.2622 75.2855 73.7076C79.0422 71.0028 81.8974 67.772 83.8509 64.0152C85.9547 60.2584 87.0066 55.9757 87.0066 51.1671V50.2655C87.0066 42.7519 84.452 36.8162 79.3428 32.4584C74.2336 27.9503 67.246 25.6962 58.3801 25.6962C49.6644 25.6962 42.6017 28.1006 37.1919 32.9092C31.9325 37.5676 29.3027 44.3298 29.3027 53.1957V57.253H0.450814V53.6465C0.450814 42.226 3.00541 32.5335 8.1146 24.5692C13.2238 16.6049 20.1362 10.5189 28.8519 6.31136C37.7179 2.10379 47.5606 0 58.3801 0C69.1995 0 78.9671 2.10379 87.6828 6.31136C96.3985 10.3687 103.236 16.1541 108.195 23.6676C113.304 31.0308 115.858 39.7465 115.858 49.8146V52.0687C115.858 62.1368 113.755 70.7022 109.547 77.7649C105.49 84.6774 99.9298 90.3876 92.8671 94.8957C85.8044 99.2536 77.7649 102.86 68.7487 105.715L54.3228 110.223C47.8611 112.177 42.8271 114.356 39.2206 116.76C35.6141 119.014 33.0595 121.569 31.5568 124.424C30.2044 127.129 29.5281 130.435 29.5281 134.342V135.243H114.506V160.94H0Z" fill="#2563EB"/>
</svg>
