<svg width="975" height="328" viewBox="0 0 975 328" fill="none" xmlns="http://www.w3.org/2000/svg">
<path d="M236.227 78.0938L139.249 129.544V136.897H156.255L157.604 136.906C171.526 137.082 185.019 139.987 198.078 145.624C211.865 151.443 223.204 160.48 232.089 172.73C240.972 184.674 245.413 200.291 245.413 219.583V225.099C245.413 245.921 240.361 264.142 230.252 279.76C220.142 295.072 205.892 307.018 187.51 315.593C169.434 323.861 148.291 328 124.088 328C99.8846 328 78.4359 323.712 59.7471 315.138C41.0577 306.563 26.3475 294.311 15.624 278.386C5.20731 262.155 0.000272719 243.013 0 220.964V212.692H58.8291V219.127C58.8296 236.276 64.8044 250.058 76.7529 260.47C88.7016 270.575 104.481 275.631 124.088 275.631C144.001 275.631 159.318 270.88 170.041 261.388C181.071 251.894 186.591 239.949 186.591 225.555V220.964C186.591 211.164 184.137 203.2 179.235 197.075C174.333 190.95 167.746 186.505 159.474 183.749C151.46 180.782 142.437 179.256 132.41 179.163L131.438 179.158H67.0967V114.845L170.96 59.7217V52.3691H8.27441V0H236.227V78.0938ZM339.34 240.717C351.901 240.717 353.203 253.959 361.476 262.228C369.748 270.19 383 271.496 383 284.358C383 297.22 369.747 298.676 361.476 306.944C353.203 314.907 351.901 328 339.34 328C327.086 328 325.789 314.906 317.211 306.944C308.939 298.676 295.679 297.221 295.679 284.358C295.679 271.496 308.939 270.19 317.211 262.228C325.789 253.961 327.086 240.717 339.34 240.717ZM672.325 205.432C680.151 205.432 686.078 206.813 690.106 209.575C694.134 212.337 697.069 215.214 698.91 218.206H702.018V207.849H723.424V308.665C723.424 314.535 721.698 319.196 718.245 322.648C714.792 326.216 710.189 328 704.435 328H647.121V309.011H696.839C700.061 309.011 701.673 307.284 701.673 303.832V281.562H698.565C697.415 283.404 695.803 285.302 693.731 287.259C691.66 289.1 688.898 290.654 685.445 291.92C681.993 293.186 677.619 293.819 672.325 293.819C665.305 293.819 658.803 292.15 652.818 288.812C646.949 285.36 642.23 280.468 638.662 274.139C635.095 267.694 633.311 259.983 633.311 251.007V248.244C633.311 239.267 635.094 231.614 638.662 225.284C642.23 218.839 646.949 213.948 652.818 210.61C658.803 207.158 665.305 205.432 672.325 205.432ZM933.264 205.432C941.665 205.432 948.974 207.331 955.188 211.129C961.403 214.812 966.237 219.99 969.689 226.665C973.142 233.225 974.868 240.878 974.868 249.625V257.049H912.548C912.778 262.918 914.965 267.694 919.108 271.377C923.252 275.06 928.315 276.901 934.3 276.901C940.399 276.901 944.887 275.578 947.765 272.931C950.642 270.284 952.829 267.348 954.325 264.126L972.105 273.448C970.494 276.44 968.136 279.721 965.028 283.288C962.036 286.741 958.007 289.734 952.943 292.266C947.88 294.682 941.435 295.891 933.609 295.891C925.093 295.891 917.554 294.107 910.994 290.539C904.549 286.856 899.486 281.735 895.803 275.175C892.235 268.5 890.451 260.674 890.451 251.697V249.625C890.451 240.648 892.235 232.88 895.803 226.32C899.37 219.645 904.377 214.524 910.821 210.956C917.266 207.273 924.747 205.432 933.264 205.432ZM515.935 193.348H461.037V222.177H511.101V242.893H461.037V272.758H516.97V293.474H438.25V172.632H515.935V193.348ZM582.347 206.468C589.022 206.468 594.834 208.021 599.783 211.128C604.847 214.12 608.759 218.321 611.521 223.73C614.284 229.025 615.665 235.24 615.665 242.375V293.474H593.913V244.101C593.913 237.656 592.302 232.822 589.08 229.6C585.973 226.377 581.484 224.767 575.614 224.767C568.939 224.767 563.76 227.011 560.077 231.499C556.395 235.872 554.554 242.03 554.554 249.971V293.474H532.802V207.849H554.208V219.069H557.315C558.696 216.077 561.286 213.257 565.084 210.61C568.882 207.848 574.636 206.468 582.347 206.468ZM767.565 293.474H745.813V207.849H767.565V293.474ZM839.487 206.468C846.162 206.468 851.975 208.021 856.924 211.128C861.988 214.12 865.9 218.321 868.662 223.73C871.424 229.025 872.806 235.24 872.806 242.375V293.474H851.054V244.101C851.054 237.656 849.443 232.822 846.221 229.6C843.113 226.377 838.624 224.767 832.755 224.767C826.08 224.767 820.901 227.011 817.218 231.499C813.535 235.872 811.694 242.03 811.694 249.971V293.474H789.942V207.849H811.349V219.069H814.456C815.837 216.077 818.427 213.257 822.225 210.61C826.022 207.848 831.777 206.468 839.487 206.468ZM678.54 224.421C671.865 224.421 666.283 226.55 661.795 230.809C657.307 234.952 655.063 240.936 655.062 248.762V250.488C655.062 258.199 657.307 264.184 661.795 268.442C666.283 272.701 671.865 274.829 678.54 274.829C685.215 274.829 690.797 272.701 695.285 268.442C699.774 264.184 702.018 258.199 702.018 250.488V248.762C702.017 240.936 699.773 234.952 695.285 230.809C690.912 226.55 685.33 224.421 678.54 224.421ZM933.091 224.421C927.222 224.421 922.561 225.917 919.108 228.909C915.656 231.901 913.526 235.873 912.721 240.821H952.771C952.311 235.873 950.297 231.901 946.729 228.909C943.277 225.917 938.73 224.421 933.091 224.421ZM339.33 133.734C350.815 133.52 361.109 125.081 370.212 134.176C379.314 143.271 370.974 153.663 370.977 165.354C370.762 176.828 379.108 187.006 370.226 195.881C361.56 204.538 351.377 196.196 339.677 196.627C327.975 196.624 317.57 204.962 308.467 195.867C299.364 186.772 307.815 176.482 308.029 165.007C308.244 153.101 299.789 142.819 308.453 134.162C317.336 125.287 327.629 133.732 339.33 133.734ZM756.689 170.215C760.717 170.215 764.055 171.481 766.702 174.013C769.349 176.545 770.673 179.882 770.673 184.025C770.673 188.168 769.349 191.506 766.702 194.038C764.055 196.57 760.717 197.836 756.689 197.836C752.777 197.836 749.439 196.57 746.677 194.038C744.03 191.506 742.706 188.169 742.706 184.025C742.706 179.882 744.03 176.545 746.677 174.013C749.439 171.481 752.777 170.215 756.689 170.215ZM682.023 32.7998C690.425 32.7998 697.734 34.6992 703.948 38.4971C710.163 42.1798 714.997 47.3584 718.449 54.0332C721.902 60.5931 723.628 68.2467 723.628 76.9932V84.417H661.308C661.538 90.2864 663.725 95.0624 667.868 98.7451C672.011 102.428 677.075 104.27 683.06 104.27C689.159 104.27 693.647 102.946 696.524 100.299C699.402 97.6519 701.589 94.7175 703.085 91.4951L720.865 100.816C719.254 103.809 716.895 107.09 713.788 110.657C710.796 114.11 706.767 117.102 701.703 119.634C696.639 122.05 690.195 123.259 682.369 123.259C673.853 123.259 666.314 121.475 659.754 117.907C653.309 114.224 648.245 109.103 644.562 102.543C640.995 95.868 639.211 88.0421 639.211 79.0654V76.9932C639.211 68.0166 640.995 60.2483 644.562 53.6885C648.13 47.0135 653.136 41.8919 659.581 38.3242C666.026 34.6414 673.507 32.7998 682.023 32.7998ZM524.221 20.7158H489.004V120.842H466.217V20.7158H431V0H524.221V20.7158ZM560.454 45.7471H563.562C564.482 43.9059 565.921 42.0648 567.877 40.2236C569.833 38.3823 572.423 36.8852 575.646 35.7344C578.983 34.4684 583.184 33.8359 588.248 33.8359C594.923 33.836 600.735 35.3897 605.684 38.4971C610.747 41.4893 614.661 45.6896 617.423 51.0986C620.185 56.3927 621.565 62.6077 621.565 69.7432V120.842H599.814V71.4697C599.814 65.0249 598.203 60.1912 594.98 56.9688C591.873 53.7464 587.385 52.1348 581.516 52.1348C574.841 52.1348 569.661 54.3789 565.979 58.8672C562.296 63.2405 560.454 69.3979 560.454 77.3389V120.842H538.703V0H560.454V45.7471ZM339.34 0C351.901 0.000186614 353.203 13.2421 361.476 21.5107C369.748 29.4733 383 30.7791 383 43.6416C383 56.5035 369.747 57.9599 361.476 66.2285C353.204 74.1911 351.901 87.283 339.34 87.2832C327.086 87.2829 325.789 74.19 317.211 66.2285C308.939 57.9598 295.679 56.504 295.679 43.6416C295.679 30.7791 308.939 29.4733 317.211 21.5107C325.789 13.2438 327.086 0.000264875 339.34 0ZM681.851 51.7891C675.981 51.7891 671.321 53.2861 667.868 56.2783C664.416 59.2706 662.286 63.2407 661.48 68.1895H701.531C701.071 63.2409 699.057 59.2706 695.489 56.2783C692.037 53.286 687.49 51.7891 681.851 51.7891Z" fill="white"/>
</svg>
