<svg width="961" height="328" viewBox="0 0 961 328" fill="none" xmlns="http://www.w3.org/2000/svg">
<path d="M236.227 78.0938L139.249 129.544V136.897H156.255L157.604 136.906C171.526 137.082 185.019 139.987 198.078 145.624C211.865 151.443 223.204 160.48 232.089 172.73C240.972 184.674 245.413 200.291 245.413 219.583V225.099C245.413 245.921 240.361 264.142 230.252 279.76C220.142 295.072 205.892 307.018 187.51 315.593C169.434 323.861 148.292 328 124.088 328C99.8846 328 78.4359 323.712 59.7471 315.138C41.0577 306.563 26.3475 294.311 15.624 278.386C5.20731 262.155 0.000272814 243.013 0 220.964V212.692H58.8291V219.127C58.8296 236.276 64.8044 250.058 76.7529 260.47C88.7017 270.575 104.481 275.631 124.088 275.631C144.001 275.631 159.318 270.88 170.041 261.388C181.071 251.894 186.591 239.949 186.591 225.555V220.964C186.591 211.164 184.137 203.2 179.235 197.075C174.333 190.95 167.746 186.506 159.474 183.75C151.46 180.783 142.437 179.256 132.41 179.163L131.438 179.158H67.0967V114.845L170.96 59.7217V52.3691H8.27441V0H236.227V78.0938ZM339.34 240.717C351.901 240.717 353.203 253.959 361.476 262.228C369.748 270.19 383 271.496 383 284.358C383 297.22 369.747 298.676 361.476 306.944C353.203 314.907 351.901 328 339.34 328C327.086 328 325.789 314.906 317.211 306.944C308.939 298.676 295.679 297.221 295.679 284.358C295.679 271.496 308.939 270.19 317.211 262.228C325.789 253.961 327.086 240.717 339.34 240.717ZM642.185 226.032C651.555 226.032 659.976 227.932 667.447 231.73C674.918 235.529 680.807 241.037 685.112 248.255C689.418 255.473 691.57 264.147 691.57 274.277V277.316C691.57 287.446 689.417 296.12 685.112 303.338C680.807 310.556 674.918 316.064 667.447 319.863C659.976 323.662 651.555 325.562 642.185 325.562C632.814 325.561 624.394 323.662 616.923 319.863C609.452 316.064 603.563 310.556 599.258 303.338C594.953 296.12 592.8 287.446 592.8 277.316V274.277C592.8 264.147 594.952 255.473 599.258 248.255C603.563 241.037 609.452 235.529 616.923 231.73C624.394 227.932 632.814 226.032 642.185 226.032ZM834.82 226.032C844.191 226.032 852.612 227.932 860.083 231.73C867.554 235.529 873.443 241.037 877.748 248.255C882.053 255.473 884.206 264.147 884.206 274.277V277.316C884.206 287.446 882.053 296.12 877.748 303.338C873.443 310.556 867.554 316.064 860.083 319.863C852.612 323.662 844.191 325.562 834.82 325.562C825.45 325.561 817.03 323.662 809.559 319.863C802.088 316.064 796.199 310.556 791.894 303.338C787.588 296.12 785.436 287.446 785.436 277.316V274.277C785.436 264.147 787.588 255.473 791.894 248.255C796.199 241.037 802.088 235.529 809.559 231.73C817.03 227.932 825.45 226.032 834.82 226.032ZM747.736 228.691H773.568V248.445H747.736V297.45C747.736 301.249 749.509 303.148 753.055 303.148H771.289V322.902H744.697C738.493 322.902 733.427 321.003 729.502 317.204C725.703 313.279 723.804 308.087 723.804 301.629V248.445H700.251V228.691H723.804V199.44H747.736V228.691ZM961 249.585H949.224C943.145 249.585 938.143 251.231 934.218 254.523C930.292 257.689 928.33 262.628 928.33 269.339V322.902H904.397V228.691H927.95V239.328H931.369C932.762 235.529 935.041 232.743 938.207 230.971C941.499 229.198 945.298 228.312 949.604 228.312H961V249.585ZM500.519 305.807H503.938L526.921 189.942H573.457V322.901H549.145V208.366H545.726L522.933 322.901H481.524L458.731 208.366H455.312V322.901H431V189.942H477.536L500.519 305.807ZM642.185 247.306C634.84 247.306 628.762 249.712 623.95 254.523C619.139 259.209 616.732 265.983 616.732 274.847V276.746C616.732 285.61 619.139 292.448 623.95 297.26C628.762 301.945 634.84 304.288 642.185 304.288C649.529 304.288 655.607 301.945 660.419 297.26C665.231 292.448 667.637 285.61 667.637 276.746V274.847C667.637 265.983 665.231 259.209 660.419 254.523C655.734 249.712 649.656 247.306 642.185 247.306ZM834.82 247.306C827.476 247.306 821.398 249.712 816.586 254.523C811.774 259.209 809.368 265.983 809.368 274.847V276.746C809.368 285.61 811.774 292.448 816.586 297.26C821.398 301.945 827.476 304.288 834.82 304.288C842.165 304.288 848.243 301.945 853.055 297.26C857.867 292.448 860.272 285.61 860.272 276.746V274.847C860.272 265.983 857.867 259.209 853.055 254.523C848.369 249.712 842.291 247.306 834.82 247.306ZM339.33 133.734C350.815 133.52 361.109 125.081 370.212 134.176C379.314 143.271 370.974 153.663 370.977 165.354C370.762 176.828 379.108 187.006 370.226 195.881C361.56 204.538 351.377 196.196 339.677 196.627C327.975 196.624 317.57 204.962 308.467 195.867C299.364 186.772 307.815 176.482 308.029 165.007C308.244 153.101 299.789 142.819 308.453 134.162C317.336 125.287 327.629 133.732 339.33 133.734ZM516.474 22.793H456.072V54.5137H511.155V77.3066H456.072V110.167H517.613V132.96H431V0H516.474V22.793ZM558.967 132.96H535.034V0H558.967V132.96ZM339.34 0C351.901 0.000193039 353.204 13.2422 361.476 21.5107C369.748 29.4733 383 30.7791 383 43.6416C383 56.5035 369.747 57.9599 361.476 66.2285C353.204 74.1911 351.901 87.283 339.34 87.2832C327.086 87.283 325.789 74.1901 317.211 66.2285C308.939 57.9598 295.679 56.504 295.679 43.6416C295.679 30.7791 308.939 29.4733 317.211 21.5107C325.789 13.2438 327.086 0.000264875 339.34 0Z" fill="white"/>
</svg>
