<svg width="1344" height="146" viewBox="0 0 1344 146" fill="none" xmlns="http://www.w3.org/2000/svg">
<path d="M413.155 40.7725C422.882 40.7725 431.343 42.9712 438.538 47.3682C445.733 51.6319 451.33 57.6275 455.327 65.3555C459.324 72.9502 461.322 81.8112 461.322 91.9375V100.531H389.172C389.438 107.327 391.97 112.856 396.767 117.12C401.563 121.384 407.426 123.516 414.354 123.516C421.416 123.516 426.613 121.984 429.944 118.919C433.275 115.854 435.807 112.456 437.539 108.726L458.125 119.519C456.26 122.983 453.528 126.78 449.931 130.91C446.466 134.907 441.803 138.372 435.94 141.304C430.078 144.102 422.616 145.501 413.556 145.501C403.696 145.501 394.968 143.435 387.373 139.305C379.912 135.041 374.049 129.111 369.785 121.517C365.655 113.789 363.59 104.729 363.59 94.3359V91.9375C363.59 81.5447 365.655 72.5508 369.785 64.9561C373.916 57.2281 379.711 51.2985 387.173 47.168C394.634 42.9043 403.295 40.7725 413.155 40.7725ZM593.815 40.7725C604.874 40.7725 614.068 43.2372 621.396 48.167C628.725 53.0969 633.522 59.5593 635.787 67.5537L612.403 74.749C611.337 69.6858 609.139 66.0879 605.808 63.9561C602.61 61.8242 598.612 60.7588 593.815 60.7588C589.019 60.7588 585.355 61.6244 582.823 63.3564C580.292 64.9553 579.025 67.221 579.025 70.1523C579.025 73.3501 580.359 75.7488 583.023 77.3477C585.688 78.8132 589.286 79.9457 593.815 80.7451L599.412 81.7441C606.873 83.0765 613.602 84.8756 619.598 87.1406C625.727 89.2725 630.524 92.4037 633.988 96.5342C637.586 100.531 639.385 105.994 639.385 112.923C639.385 123.316 635.587 131.377 627.992 137.106C620.531 142.703 610.47 145.501 597.812 145.501C584.888 145.501 574.295 142.703 566.034 137.106C557.773 131.51 552.777 123.516 551.045 113.123L574.229 107.127C575.162 111.79 576.694 115.454 578.826 118.119C581.091 120.784 583.823 122.716 587.021 123.915C590.351 124.981 593.949 125.515 597.812 125.515C603.675 125.515 608.006 124.515 610.804 122.517C613.602 120.385 615.001 117.786 615.001 114.722C615.001 111.657 613.669 109.325 611.004 107.727C608.339 105.994 604.075 104.595 598.213 103.529L592.616 102.53C585.688 101.198 579.359 99.3988 573.63 97.1338C567.901 94.7355 563.303 91.4712 559.839 87.3408C556.375 83.2103 554.643 77.8803 554.643 71.3516C554.643 61.4916 558.24 53.963 565.436 48.7666C572.631 43.4372 582.09 40.7725 593.815 40.7725ZM699.844 40.7725C712.901 40.7725 723.227 44.0368 730.822 50.5654C738.417 57.0943 742.215 66.5548 742.215 78.9463V115.921C742.215 119.918 744.081 121.917 747.812 121.917H755.806V142.702H739.018C734.088 142.702 730.023 141.504 726.825 139.105C723.627 136.707 722.028 133.509 722.028 129.512V129.312H718.231C717.698 130.91 716.499 133.042 714.634 135.707C712.768 138.239 709.837 140.504 705.84 142.503C701.843 144.502 696.38 145.501 689.451 145.501C682.389 145.501 676.06 144.302 670.464 141.903C664.868 139.372 660.404 135.774 657.073 131.11C653.875 126.314 652.276 120.518 652.276 113.723C652.276 106.927 653.876 101.265 657.073 96.7344C660.404 92.0709 664.935 88.6059 670.664 86.3408C676.527 83.9425 683.189 82.7432 690.65 82.7432H717.832V77.1475C717.832 72.484 716.366 68.6862 713.435 65.7549C710.503 62.6905 705.84 61.1582 699.444 61.1582C693.182 61.1582 688.519 62.6244 685.454 65.5557C682.39 68.3537 680.391 72.0176 679.458 76.5479L656.273 68.7529C657.872 63.6899 660.404 59.0933 663.868 54.9629C667.466 50.6992 672.196 47.3011 678.059 44.7695C684.054 42.1047 691.316 40.7725 699.844 40.7725ZM1174.04 40.7725C1187.1 40.7725 1197.43 44.0367 1205.02 50.5654C1212.62 57.0943 1216.42 66.5548 1216.42 78.9463V115.921C1216.42 119.918 1218.28 121.917 1222.01 121.917H1230.01V142.702H1213.22C1208.29 142.702 1204.22 141.504 1201.03 139.105C1197.83 136.707 1196.23 133.509 1196.23 129.512V129.312H1192.43C1191.9 130.91 1190.7 133.042 1188.83 135.707C1186.97 138.239 1184.04 140.504 1180.04 142.503C1176.04 144.502 1170.58 145.501 1163.65 145.501C1156.59 145.501 1150.26 144.302 1144.66 141.903C1139.07 139.372 1134.6 135.774 1131.27 131.11C1128.08 126.314 1126.48 120.518 1126.48 113.723C1126.48 106.927 1128.08 101.265 1131.27 96.7344C1134.6 92.0709 1139.13 88.6059 1144.86 86.3408C1150.73 83.9426 1157.39 82.7432 1164.85 82.7432H1192.03V77.1475C1192.03 72.484 1190.57 68.6862 1187.63 65.7549C1184.7 62.6905 1180.04 61.1582 1173.64 61.1582C1167.38 61.1582 1162.72 62.6244 1159.65 65.5557C1156.59 68.3537 1154.59 72.0176 1153.66 76.5479L1130.47 68.7529C1132.07 63.6899 1134.6 59.0933 1138.07 54.9629C1141.67 50.6992 1146.4 47.3011 1152.26 44.7695C1158.25 42.1047 1165.52 40.7725 1174.04 40.7725ZM142.526 107.526C147.989 107.526 152.52 109.325 156.117 112.923C159.714 116.387 161.514 120.917 161.514 126.513C161.514 132.109 159.715 136.706 156.117 140.304C152.52 143.768 147.989 145.5 142.526 145.5C137.197 145.5 132.666 143.768 128.936 140.304C125.338 136.706 123.539 132.109 123.539 126.513C123.539 120.917 125.338 116.387 128.936 112.923C132.666 109.325 137.197 107.526 142.526 107.526ZM1106.95 142.702H1082.17V130.71H1078.57C1076.31 134.441 1072.77 137.839 1067.98 140.903C1063.31 143.968 1056.45 145.5 1047.39 145.5C1039.53 145.5 1032.14 143.568 1025.21 139.704C1018.41 135.707 1012.95 129.911 1008.82 122.316C1004.69 114.722 1002.62 105.528 1002.62 94.7354V91.5371C1002.62 80.7446 1004.69 71.5508 1008.82 63.9561C1012.95 56.3613 1018.41 50.6316 1025.21 46.7676C1032 42.7705 1039.4 40.7715 1047.39 40.7715C1053.39 40.7715 1058.38 41.5051 1062.38 42.9707C1066.51 44.3031 1069.84 46.0352 1072.37 48.167C1074.91 50.2989 1076.84 52.5636 1078.17 54.9619H1081.77V2.79785H1106.95V142.702ZM1344 142.702H1319.22V130.71H1315.62C1313.35 134.441 1309.82 137.839 1305.03 140.903C1300.36 143.968 1293.5 145.5 1284.44 145.5C1276.58 145.5 1269.18 143.568 1262.26 139.704C1255.46 135.707 1250 129.911 1245.87 122.316C1241.74 114.722 1239.67 105.528 1239.67 94.7354V91.5371C1239.67 80.7445 1241.74 71.5508 1245.87 63.9561C1250 56.3613 1255.46 50.6316 1262.26 46.7676C1269.05 42.7704 1276.45 40.7715 1284.44 40.7715C1290.44 40.7715 1295.43 41.505 1299.43 42.9707C1303.56 44.3031 1306.89 46.0352 1309.42 48.167C1311.96 50.2988 1313.89 52.5637 1315.22 54.9619H1318.82V2.79785H1344V142.702ZM51.7646 0C61.3581 0 70.019 1.86494 77.7471 5.5957C85.4751 9.19321 91.5376 14.3233 95.9346 20.9854C100.465 27.5142 102.729 35.2427 102.729 44.1699V46.168C102.729 55.0952 100.865 62.6907 97.1338 68.9531C93.5363 75.0822 88.6061 80.1454 82.3438 84.1426C76.0814 88.0066 68.9525 91.2038 60.958 93.7354L48.167 97.7334C42.4377 99.4655 37.9741 101.397 34.7764 103.529C31.5786 105.528 29.3129 107.793 27.9805 110.324C26.7813 112.723 26.1827 115.654 26.1826 119.118V119.918H101.53V142.702H0V125.914C0 116.187 1.59907 108.126 4.79688 101.73C7.99465 95.2017 12.5911 89.8717 18.5869 85.7412C24.716 81.4775 32.1778 78.0135 40.9717 75.3486L54.3633 71.1514C59.2931 69.5525 63.4239 67.6205 66.7549 65.3555C70.0859 62.9571 72.6175 60.0917 74.3496 56.7607C76.2148 53.4299 77.1474 49.6326 77.1475 45.3691V44.5693C77.1474 37.9073 74.8818 32.6443 70.3516 28.7803C65.8213 24.7832 59.6258 22.7842 51.7646 22.7842C44.0367 22.7842 37.7742 24.916 32.9775 29.1797C28.3141 33.3102 25.9824 39.3067 25.9824 47.168V50.7656H0.399414V47.5674C0.39942 37.441 2.66508 28.847 7.19531 21.7852C11.7256 14.7233 17.855 9.32648 25.583 5.5957C33.4442 1.8651 42.1714 2.96701e-06 51.7646 0ZM299.256 125.714H302.054L331.634 2.79785H358.814L323.239 142.702H278.07L242.494 2.79785H269.676L299.256 125.714ZM541.298 65.5547H528.906C522.511 65.5547 517.248 67.2867 513.117 70.751C508.987 74.082 506.922 79.279 506.922 86.3408V142.702H481.739V43.5693H506.521V54.7617H510.119C511.585 50.7646 513.983 47.8331 517.314 45.9678C520.779 44.1024 524.776 43.1699 529.307 43.1699H541.298V65.5547ZM806.17 43.5703H833.352V64.3564H806.17V115.921C806.17 119.918 808.036 121.917 811.767 121.917H830.953V142.702H802.972C796.443 142.702 791.114 140.704 786.983 136.707C782.986 132.577 780.987 127.113 780.987 120.317V64.3564H756.204V43.5703H780.987V12.791H806.17V43.5703ZM879.331 142.702H854.148V43.5703H879.331V142.702ZM930.422 142.702H905.239V2.79785H930.422V142.702ZM981.511 142.702H956.328V43.5703H981.511V142.702ZM692.449 101.53C687.786 101.53 684.121 102.53 681.456 104.528C678.791 106.527 677.459 109.325 677.459 112.923C677.459 116.52 678.858 119.452 681.656 121.717C684.454 123.982 688.518 125.114 693.848 125.114C700.91 125.114 706.639 123.182 711.036 119.318C715.566 115.321 717.832 110.058 717.832 103.529V101.53H692.449ZM1166.65 101.53C1161.99 101.53 1158.32 102.53 1155.66 104.528C1152.99 106.527 1151.66 109.325 1151.66 112.923C1151.66 116.52 1153.06 119.452 1155.86 121.717C1158.65 123.982 1162.72 125.114 1168.05 125.114C1175.11 125.114 1180.84 123.182 1185.24 119.318C1189.77 115.321 1192.03 110.058 1192.03 103.529V101.53H1166.65ZM1054.99 62.7568C1047.26 62.7568 1040.8 65.2884 1035.6 70.3516C1030.4 75.2815 1027.8 82.5433 1027.8 92.1367V94.1357C1027.8 103.729 1030.4 111.057 1035.6 116.12C1040.8 121.05 1047.26 123.516 1054.99 123.516C1062.71 123.516 1069.18 121.05 1074.37 116.12C1079.57 111.057 1082.17 103.729 1082.17 94.1357V92.1367C1082.17 82.5433 1079.57 75.2815 1074.37 70.3516C1069.31 65.2884 1062.85 62.7568 1054.99 62.7568ZM1292.04 62.7568C1284.31 62.7569 1277.84 65.2885 1272.65 70.3516C1267.45 75.2815 1264.85 82.5434 1264.85 92.1367V94.1357C1264.85 103.729 1267.45 111.057 1272.65 116.12C1277.84 121.05 1284.31 123.516 1292.04 123.516C1299.76 123.516 1306.23 121.05 1311.42 116.12C1316.62 111.057 1319.22 103.729 1319.22 94.1357V92.1367C1319.22 82.5434 1316.62 75.2815 1311.42 70.3516C1306.36 65.2884 1299.9 62.7568 1292.04 62.7568ZM412.956 62.7568C406.161 62.7568 400.764 64.4898 396.767 67.9541C392.77 71.4183 390.305 76.0149 389.372 81.7441H435.74C435.207 76.0149 432.875 71.4183 428.745 67.9541C424.748 64.4899 419.485 62.7569 412.956 62.7568ZM866.739 0C871.403 0 875.267 1.46613 878.332 4.39746C881.396 7.32875 882.929 11.1927 882.929 15.9893C882.929 20.7858 881.396 24.6498 878.332 27.5811C875.267 30.5124 871.403 31.9785 866.739 31.9785C862.209 31.9784 858.345 30.5123 855.147 27.5811C852.083 24.6498 850.551 20.7858 850.551 15.9893C850.551 11.1927 852.083 7.32875 855.147 4.39746C858.345 1.46623 862.209 0.000102434 866.739 0ZM968.919 0C973.582 0 977.447 1.46613 980.512 4.39746C983.576 7.32875 985.108 11.1927 985.108 15.9893C985.108 20.7858 983.576 24.6498 980.512 27.5811C977.447 30.5124 973.582 31.9785 968.919 31.9785C964.389 31.9784 960.525 30.5123 957.327 27.5811C954.263 24.6498 952.731 20.7858 952.73 15.9893C952.73 11.1927 954.263 7.32875 957.327 4.39746C960.525 1.46623 964.389 0.000102434 968.919 0Z" fill="#2563EB"/>
</svg>
